# xmcd
#
# Track frame offsets:
#	150
#	16275
#	34275
#	59100
#	77025
#	92550
#	107775
#	125925
#	141600
#	162450
#	175350
#	190050
#	206850
#	222525
#	238350
#	253425
#	268575
#	284700
#
# Disc length: 3816
#
# Revision: 1
# Processed by: cddbd v1.5.2PL0 Copyright (c) Steve Scherf et al.
# Submitted via: kJams Pro (development) 1.0patch49.33
#
DISCID=350ee612
DTITLE=Various Artist - BHK305
DYEAR=2007
DGENRE=Country
TTITLE0=Gretchen Wilson - Rebel Child
TTITLE1=Lonestar - Class Reunion
TTITLE2=Kenny Chesney - Anything But Mine
TTITLE3=Shania Twain - Don't
TTITLE4=Shania Twain ⁄ B Currington - Party for Two
TTITLE5=Blake Shelton - Some Beach
TTITLE6=Sugarland - Baby Girl
TTITLE7=Jamie O'Neal - Trying to Find Atlantis
TTITLE8=Tim McGraw - Back When
TTITLE9=LeAnn Rimes - Nothin' bout Love Makes Sense
TTITLE10=Craig Morgan - That's What I Love ... Sunday
TTITLE11=Lee Ann Womack - I May Hate Myself
TTITLE12=Darryl Worley - Awful, Beautiful Life
TTITLE13=Brad Paisley - Mud on the Tires
TTITLE14=Dierks Bentley - How Am I Doin'
TTITLE15=Alan Jackson - Monday Morning Church
TTITLE16=Gretchen Wilson - Rebel Child (Vocal)
TTITLE17=Blank - Blank
EXTD=
EXTT0=
EXTT1=
EXTT2=
EXTT3=
EXTT4=
EXTT5=
EXTT6=
EXTT7=
EXTT8=
EXTT9=
EXTT10=
EXTT11=
EXTT12=
EXTT13=
EXTT14=
EXTT15=
EXTT16=
EXTT17=
PLAYORDER=
